<?xml version="1.0" standalone="no"?>
<!DOCTYPE svg PUBLIC "-//W3C//DTD SVG 20010904//EN"
 "http://www.w3.org/TR/2001/REC-SVG-20010904/DTD/svg10.dtd">
<svg version="1.0" xmlns="http://www.w3.org/2000/svg"
 width="652.000000pt" height="654.000000pt" viewBox="0 0 652.000000 654.000000"
 preserveAspectRatio="xMidYMid meet">
<metadata>
Created by potrace 1.16, written by Peter Selinger 2001-2019
</metadata>
<g transform="translate(0.000000,654.000000) scale(0.100000,-0.100000)"
fill="#000000" stroke="none">
<path d="M2923 6304 c-10 -26 6 -147 28 -220 57 -185 148 -284 263 -284 26 0
46 -10 81 -40 54 -47 115 -80 146 -80 56 0 1 -10 -134 -25 -130 -14 -219 -31
-268 -50 -12 -4 -18 1 -22 23 -7 37 -50 88 -90 109 -23 12 -46 14 -93 9 -41
-4 -83 -1 -125 9 -128 30 -259 12 -380 -51 -62 -33 -108 -69 -98 -78 2 -1 66
-17 141 -35 106 -24 142 -29 163 -21 44 17 98 11 166 -16 55 -23 75 -26 142
-22 l78 5 -48 -30 c-48 -31 -122 -58 -433 -162 -207 -70 -271 -104 -333 -181
-90 -111 -124 -206 -95 -269 12 -28 28 -33 28 -10 0 33 34 97 56 105 14 6 47
5 83 -2 121 -23 274 20 333 93 37 45 69 138 76 218 6 75 18 86 131 115 41 11
106 39 154 67 127 76 217 118 276 129 30 6 56 8 58 6 3 -2 -19 -17 -49 -33
-41 -22 -59 -40 -83 -83 -26 -47 -36 -56 -74 -67 -55 -16 -74 -33 -106 -96
-20 -40 -25 -66 -25 -121 0 -53 -5 -79 -20 -104 -11 -18 -20 -35 -20 -37 0
-14 99 -2 138 16 48 24 102 95 102 136 0 13 11 34 25 46 77 67 91 86 117 163
16 43 31 104 36 134 l7 55 100 12 c167 19 285 16 350 -8 51 -19 180 -111 214
-152 15 -19 31 -22 31 -7 0 17 -151 139 -204 165 -28 14 -94 32 -146 41 -157
26 -157 26 -195 108 -18 39 -48 90 -67 112 -19 23 -40 57 -47 75 -57 153 -103
199 -238 243 -52 17 -103 63 -103 92 0 19 -19 18 -27 -2z m124 -244 c14 -11
31 -20 38 -20 16 0 43 -31 75 -87 20 -35 42 -55 90 -82 45 -25 78 -55 112 -99
27 -34 45 -62 40 -62 -12 0 -52 29 -99 72 -32 28 -51 38 -76 38 -44 0 -95 17
-133 46 -54 40 -144 243 -144 326 0 26 5 21 36 -40 19 -39 47 -81 61 -92z m25
128 c59 -20 134 -78 155 -119 7 -13 22 -50 33 -81 12 -32 37 -76 56 -99 52
-62 64 -91 23 -53 -19 18 -57 43 -85 58 -41 20 -58 36 -83 81 -18 32 -45 64
-62 73 -57 31 -75 50 -102 105 -32 66 -33 71 -9 62 9 -4 43 -16 74 -27z m-375
-454 c50 -10 96 -13 134 -9 41 5 64 3 85 -8 40 -21 71 -56 79 -90 7 -27 6 -28
-21 -21 -16 4 -46 13 -68 21 -21 7 -69 13 -107 13 -49 0 -88 7 -135 25 -81 30
-153 32 -279 5 -49 -10 -92 -17 -94 -14 -2 2 29 19 70 39 114 54 211 65 336
39z m-43 -89 c49 -18 87 -25 144 -26 47 0 97 -8 127 -18 l50 -18 -54 -17 c-79
-23 -142 -20 -219 11 -69 28 -110 32 -175 18 -37 -8 -197 22 -197 36 0 10 140
37 201 38 38 1 78 -7 123 -24z m520 -92 c-10 -16 -32 -53 -50 -84 -17 -31 -54
-78 -82 -105 -42 -41 -54 -61 -71 -119 -13 -46 -31 -80 -49 -98 -15 -15 -30
-27 -33 -27 -2 0 -3 37 -2 81 4 127 44 193 131 218 36 10 47 20 74 68 17 30
45 64 62 74 40 25 42 24 20 -8z m31 -60 c-28 -96 -61 -156 -97 -177 -43 -25
-55 -43 -62 -87 -10 -62 -70 -120 -136 -133 l-35 -7 30 19 c49 31 66 58 86
129 16 59 26 75 73 119 29 27 64 70 76 94 34 67 74 124 78 111 2 -6 -4 -37
-13 -68z m-673 -167 c-10 -14 -41 -43 -68 -64 -27 -21 -61 -54 -76 -74 -33
-43 -73 -63 -191 -94 -51 -14 -106 -36 -124 -50 -18 -14 -33 -21 -33 -16 0 5
22 40 49 79 44 62 92 110 141 139 22 13 314 112 319 108 2 -1 -6 -14 -17 -28z
m28 -70 c-19 -91 -65 -172 -115 -201 -67 -40 -183 -58 -272 -43 -70 11 -74 11
-105 -12 l-33 -23 25 27 c34 38 65 52 151 72 106 24 134 41 250 154 57 55 105
96 107 90 2 -5 -2 -34 -8 -64z"/>
<path d="M4065 5958 c-20 -68 -20 -246 1 -345 20 -97 60 -176 118 -233 25 -24
46 -49 46 -55 0 -6 14 -33 31 -59 l30 -49 -43 25 c-24 14 -97 54 -163 89 -72
38 -143 84 -177 116 -59 54 -130 96 -185 107 -18 4 -76 0 -134 -10 -87 -14
-112 -15 -171 -4 -38 6 -72 9 -75 6 -9 -9 17 -35 97 -96 103 -78 147 -99 238
-110 42 -6 91 -13 108 -16 23 -4 51 3 100 24 l69 30 60 -33 c33 -18 146 -79
250 -136 105 -56 204 -111 220 -122 28 -18 28 -19 5 -13 -78 17 -312 39 -415
40 -142 1 -179 -12 -268 -92 -61 -56 -95 -76 -144 -86 -32 -7 -60 -31 -46 -39
14 -8 144 -36 237 -52 112 -19 157 -19 202 0 49 20 188 147 208 190 16 33 19
35 69 35 95 0 234 -35 292 -74 118 -78 228 -201 290 -326 l28 -55 -60 55 c-32
30 -77 64 -99 75 -21 11 -55 32 -74 47 -78 60 -206 89 -303 68 -31 -6 -96 -27
-144 -47 -48 -19 -119 -41 -158 -48 l-70 -12 32 -16 c52 -28 152 -47 243 -47
55 0 110 -7 155 -20 38 -11 81 -20 95 -20 50 0 105 23 137 56 17 19 37 34 44
34 50 0 206 -150 243 -234 13 -28 43 -76 68 -106 25 -30 48 -68 52 -84 5 -21
10 -26 18 -18 15 15 1 45 -57 120 -27 35 -65 105 -93 173 -47 112 -87 181
-143 246 -42 48 -47 104 -15 165 21 40 26 64 26 119 0 52 7 85 28 136 40 99
37 175 -12 318 -21 61 -41 138 -43 173 -3 34 -10 62 -14 62 -16 0 -46 -74 -90
-220 -47 -156 -45 -129 -37 -410 3 -100 7 -122 31 -174 15 -32 27 -60 27 -62
0 -3 -23 14 -51 36 -53 41 -187 127 -276 175 -52 28 -53 29 -53 75 0 26 5 72
11 103 10 46 9 68 -5 121 -9 36 -16 76 -16 90 0 14 -5 48 -11 77 -10 46 -21
61 -89 128 -83 81 -114 131 -131 211 -6 27 -15 50 -19 50 -5 0 -16 -23 -25
-52z m79 -252 c25 -47 46 -101 49 -128 4 -26 24 -82 46 -125 37 -73 71 -169
71 -200 0 -25 -20 -3 -46 50 -14 29 -46 72 -69 97 -88 91 -125 214 -124 410
l1 105 14 -64 c8 -35 34 -100 58 -145z m81 30 c76 -74 95 -111 95 -186 0 -20
7 -63 16 -95 10 -39 13 -77 9 -107 -8 -55 -20 -62 -29 -17 -3 17 -24 67 -46
111 -23 44 -47 108 -54 141 -7 34 -34 103 -59 152 -25 50 -48 108 -51 130 l-5
40 25 -49 c14 -27 59 -81 99 -120z m613 -171 c46 -139 48 -202 9 -298 -20 -51
-27 -85 -27 -140 -1 -55 -6 -82 -24 -116 l-23 -44 5 56 c2 30 -1 86 -7 123
-11 59 -10 80 10 174 20 102 20 110 5 163 -9 30 -16 65 -16 78 0 39 24 155 28
134 2 -11 20 -69 40 -130z m-81 23 c0 -46 3 -109 8 -142 6 -43 3 -81 -10 -143
-16 -74 -16 -95 -6 -168 7 -47 10 -103 6 -126 -7 -42 -8 -42 -21 -18 -7 13
-21 46 -30 73 -14 42 -15 57 -5 97 10 39 9 57 -4 110 -10 37 -15 85 -13 114 4
41 66 285 73 285 1 0 2 -37 2 -82z m-979 -78 c42 -19 136 -89 129 -96 -7 -8
-122 28 -153 46 -25 16 -49 20 -122 20 -50 0 -115 5 -144 12 l-53 12 79 8 c43
4 84 9 90 12 30 12 134 4 174 -14z m-178 -47 c92 -5 124 -10 161 -29 25 -12
63 -26 85 -29 67 -13 70 -20 16 -43 -49 -21 -52 -21 -158 -6 -115 17 -169 39
-234 95 -32 28 -33 30 -10 24 14 -3 77 -9 140 -12z m580 -374 c33 0 32 -2 -35
-34 -42 -20 -94 -36 -130 -40 -36 -4 -80 -18 -110 -35 -54 -30 -99 -45 -158
-54 l-38 -5 38 25 c21 14 56 43 78 64 72 68 144 92 255 85 36 -3 81 -5 100 -6z
m70 -36 c0 -26 -169 -182 -213 -195 -40 -12 -163 -1 -277 26 l-55 12 65 12
c36 6 97 27 135 46 42 21 92 37 124 40 32 3 83 19 125 40 81 40 96 43 96 19z
m370 -236 c54 -21 54 -21 25 -28 -16 -4 -82 -7 -145 -8 -63 -1 -151 -8 -195
-16 -137 -25 -151 -19 -55 21 162 67 254 75 370 31z m73 -55 c16 -7 16 -9 1
-30 -38 -54 -114 -69 -214 -42 -43 11 -110 20 -155 20 -44 1 -98 4 -120 8 -34
6 -20 10 95 25 74 10 180 19 235 20 55 2 109 3 120 4 11 1 28 -2 38 -5z"/>
<path d="M5266 4827 l-119 -238 5 -78 c5 -83 20 -122 113 -286 43 -77 45 -83
45 -165 0 -83 11 -175 26 -215 13 -37 -44 25 -82 87 -19 32 -48 66 -63 78 -16
11 -32 32 -35 47 -13 53 -86 192 -120 227 -30 33 -38 36 -89 36 -53 0 -58 2
-102 46 -64 63 -96 74 -209 74 -52 0 -107 5 -122 10 -45 17 -40 2 17 -58 31
-31 72 -80 92 -108 23 -32 50 -56 69 -64 18 -6 42 -15 54 -20 11 -4 43 -27 70
-51 142 -123 222 -162 291 -141 32 10 39 8 69 -15 19 -14 48 -49 64 -79 17
-29 55 -75 85 -102 62 -55 78 -87 95 -192 6 -41 27 -134 46 -206 53 -203 51
-218 -51 -433 -47 -98 -86 -187 -86 -197 -1 -11 -6 13 -10 51 -12 93 -4 144
36 240 85 202 70 362 -46 477 -32 32 -67 79 -79 104 -59 134 -206 224 -366
224 -29 0 -64 4 -78 10 -57 21 -31 -12 55 -72 75 -51 100 -75 134 -128 89
-138 102 -173 115 -324 16 -175 22 -191 106 -272 40 -39 78 -83 84 -98 5 -15
13 -116 16 -224 7 -212 -2 -320 -37 -452 -20 -76 -137 -380 -146 -380 -3 0 -2
35 2 78 3 42 2 115 -4 161 l-11 84 35 77 c48 105 49 180 5 235 -35 44 -38 53
-43 160 -6 126 -43 180 -223 332 -63 52 -114 100 -114 107 -1 14 -60 73 -60
59 0 -6 13 -39 29 -74 50 -111 63 -187 71 -404 4 -113 12 -213 19 -229 7 -16
70 -88 140 -160 l128 -131 7 -85 c8 -107 -13 -274 -41 -325 -6 -10 -44 -51
-84 -91 -40 -41 -69 -77 -65 -81 4 -4 45 31 91 78 90 94 136 171 201 343 19
49 39 95 43 101 5 5 11 21 14 35 11 43 103 172 172 240 l66 65 57 -4 c154 -12
188 -7 289 44 133 68 179 115 227 235 20 52 64 146 97 209 33 63 58 115 57
116 -10 8 -323 -81 -387 -110 -43 -19 -92 -35 -107 -35 -111 0 -264 -229 -264
-394 0 -45 -4 -56 -31 -82 -17 -16 -54 -57 -82 -91 -28 -35 -52 -62 -53 -60
-1 1 4 45 12 97 7 52 14 129 14 169 0 100 34 210 116 373 79 157 129 281 184
458 64 204 55 188 119 206 50 14 67 27 151 112 158 161 186 240 134 378 -48
128 -41 269 22 424 13 33 24 62 24 65 0 17 -54 0 -90 -29 -23 -18 -61 -40 -84
-47 -51 -17 -162 -120 -215 -200 -29 -43 -44 -80 -56 -137 -8 -42 -26 -117
-39 -167 -14 -49 -27 -109 -31 -132 -9 -59 11 -147 51 -221 19 -34 34 -73 34
-86 0 -25 -42 -166 -86 -292 l-28 -78 -11 59 c-7 33 -22 96 -34 139 -13 44
-31 125 -41 181 -13 74 -29 125 -61 191 l-44 89 0 155 0 155 53 105 c80 160
88 249 36 389 -20 54 -24 83 -25 190 -2 207 2 208 -133 -62z m64 16 c-33 -102
-33 -101 -14 -266 5 -41 2 -80 -11 -133 -13 -55 -16 -97 -12 -152 l6 -77 -31
50 c-17 28 -45 79 -62 115 -27 56 -31 76 -31 146 0 74 3 86 38 150 21 38 61
118 90 177 28 59 53 103 55 98 2 -6 -11 -54 -28 -108z m79 -162 c49 -121 36
-236 -43 -382 l-44 -82 -7 68 c-6 51 -3 88 10 146 14 62 16 94 10 161 -13 128
-12 158 15 244 l25 79 6 -90 c4 -59 13 -109 28 -144z m593 -191 c-21 -62 -26
-93 -26 -180 0 -90 4 -116 27 -179 45 -123 34 -173 -63 -296 -78 -99 -141
-152 -200 -169 -30 -9 -55 -14 -57 -13 -12 13 48 182 105 295 l67 135 1 127
c1 114 4 133 27 184 21 46 134 183 143 174 1 -2 -9 -37 -24 -78z m-68 18 c-26
-29 -59 -78 -73 -108 -24 -50 -26 -66 -26 -185 l0 -130 -61 -120 c-55 -108
-84 -183 -111 -285 l-9 -35 -33 67 c-47 96 -52 175 -18 294 14 49 31 117 37
151 22 126 54 184 159 290 44 44 75 66 111 78 27 9 52 21 55 26 4 5 9 9 12 9
2 0 -17 -24 -43 -52z m-1196 -97 c18 -6 58 -33 88 -60 52 -48 59 -51 108 -51
38 0 61 -6 78 -20 28 -21 126 -206 115 -216 -4 -4 -38 23 -76 59 -38 36 -78
67 -88 70 -10 3 -30 8 -46 11 -15 4 -45 22 -65 41 -21 19 -92 66 -158 104
l-119 71 65 0 c36 0 80 -4 98 -9z m-39 -90 c57 -34 122 -77 144 -97 23 -19 61
-40 85 -46 59 -15 202 -143 171 -153 -52 -17 -115 14 -240 115 -61 50 -111 83
-137 90 -35 9 -51 23 -102 91 -33 44 -52 76 -42 70 9 -5 64 -37 121 -70z m318
-493 c86 -32 144 -85 191 -175 27 -51 55 -90 83 -112 107 -87 127 -281 46
-461 l-24 -55 -12 40 c-7 22 -16 90 -21 150 -4 61 -15 129 -23 151 -8 23 -22
79 -31 124 -27 142 -80 202 -282 316 l-99 55 60 -6 c33 -4 83 -16 112 -27z
m44 -120 c87 -60 127 -126 145 -237 3 -25 15 -69 25 -100 11 -31 19 -82 19
-120 0 -36 7 -93 15 -126 8 -33 14 -64 15 -69 0 -10 -86 59 -112 89 -28 33
-46 104 -57 225 -5 63 -17 135 -26 160 -23 64 -103 197 -144 238 l-35 35 50
-28 c27 -16 74 -46 105 -67z m-176 -679 c146 -118 186 -182 192 -304 5 -107 8
-115 44 -161 28 -36 31 -44 27 -99 -4 -55 -41 -155 -58 -155 -3 0 -30 58 -58
129 -45 112 -52 139 -52 198 0 116 -21 173 -101 279 -32 42 -89 157 -89 179 0
9 19 -4 95 -66z m1230 33 c-6 -5 -37 -29 -70 -54 -61 -46 -181 -167 -211 -213
-22 -34 -64 -55 -109 -55 -55 0 -89 -23 -161 -110 -36 -44 -70 -80 -75 -80
-14 0 -11 61 7 121 21 73 65 148 124 213 43 47 55 54 97 59 26 3 83 22 125 42
61 28 177 63 278 84 2 1 0 -3 -5 -7z m11 -82 c-25 -47 -61 -127 -82 -179 -47
-117 -89 -161 -219 -227 -81 -41 -102 -47 -157 -48 -35 0 -85 3 -111 7 -46 8
-47 9 -29 25 11 9 41 44 68 76 51 62 92 86 144 86 45 0 80 22 122 77 54 70
163 174 238 226 36 25 66 44 67 43 1 -1 -17 -40 -41 -86z m-1185 -214 c6 -23
15 -84 19 -136 7 -82 15 -112 59 -220 l51 -125 -105 105 c-59 58 -113 118
-122 134 -15 29 -19 72 -27 314 l-5 133 60 -82 c32 -45 64 -101 70 -123z"/>
<path d="M3360 3435 c0 -728 0 -735 20 -735 20 0 20 7 20 735 0 728 0 735 -20
735 -20 0 -20 -7 -20 -735z"/>
<path d="M1987 4083 c-20 -20 -4 -33 41 -33 26 0 66 -9 89 -19 35 -16 43 -26
50 -58 4 -21 8 -279 8 -573 0 -494 -1 -538 -17 -563 -24 -36 -52 -49 -118 -56
-41 -5 -56 -10 -58 -23 -3 -17 27 -18 521 -18 l524 0 57 163 c31 89 56 165 56
170 0 4 -9 7 -19 7 -13 0 -34 -24 -65 -74 -59 -94 -130 -160 -190 -175 -26 -6
-129 -11 -244 -11 -182 0 -202 2 -223 19 l-24 19 -3 277 -4 277 194 -4 c250
-5 278 -19 301 -137 10 -53 14 -61 34 -61 l23 0 0 236 0 235 -22 -3 c-19 -2
-24 -11 -29 -50 -9 -62 -35 -104 -79 -125 -29 -14 -67 -17 -225 -17 l-190 -1
-3 263 -2 263 247 -3 c228 -3 251 -5 283 -23 38 -22 73 -82 90 -152 8 -33 16
-43 30 -43 23 0 24 18 13 193 l-6 107 -517 0 c-284 0 -520 -3 -523 -7z"/>
<path d="M3797 4083 c-20 -19 -5 -33 36 -33 52 0 121 -31 139 -62 10 -18 13
-134 13 -573 0 -302 -3 -562 -8 -577 -4 -15 -18 -35 -31 -44 -35 -22 -60 -5
-95 64 -47 92 -62 107 -114 107 -102 0 -139 -112 -64 -194 54 -58 173 -78 270
-45 56 19 138 90 172 148 59 101 58 92 65 606 4 322 10 484 18 502 16 39 53
59 122 65 50 5 60 9 60 24 0 18 -14 19 -288 19 -159 0 -292 -3 -295 -7z"/>
<path d="M697 3383 c-13 -27 -43 -77 -66 -113 -60 -92 -75 -153 -68 -271 4
-60 14 -119 27 -155 12 -33 25 -84 30 -114 5 -31 25 -106 44 -167 19 -62 38
-136 41 -165 5 -56 4 -54 -28 32 -12 33 -39 75 -67 105 -26 27 -57 69 -68 91
-28 54 -65 98 -106 123 -34 22 -194 66 -203 57 -3 -3 7 -16 23 -30 35 -29 54
-65 95 -179 25 -71 40 -95 76 -130 25 -23 66 -64 92 -91 58 -61 115 -100 169
-117 26 -7 42 -18 42 -28 0 -34 47 -161 92 -250 56 -110 52 -111 -13 -3 -55
93 -105 126 -178 119 -33 -4 -57 2 -100 21 -70 33 -161 36 -238 7 -59 -21 -64
-29 -31 -46 13 -6 48 -33 78 -59 30 -26 75 -59 100 -75 25 -15 64 -45 86 -66
70 -63 98 -73 204 -74 52 0 114 3 137 7 l41 8 45 -63 c97 -136 196 -226 314
-286 69 -34 73 -35 73 -21 0 5 -20 18 -45 29 -99 44 -249 169 -238 199 11 32
58 74 126 114 97 56 132 91 168 163 28 58 31 73 31 156 0 112 12 156 72 248
25 40 43 77 40 83 -11 18 -90 0 -207 -48 -61 -25 -118 -51 -125 -57 -8 -6 -25
-34 -39 -61 -14 -28 -39 -67 -54 -88 -16 -20 -41 -63 -56 -95 -25 -54 -27 -67
-28 -200 l0 -142 -53 82 c-66 103 -141 256 -149 302 -8 50 34 131 97 184 29
25 61 64 76 94 40 79 68 112 127 145 116 65 174 177 193 370 3 39 3 72 -1 72
-5 0 -29 -13 -54 -30 -58 -37 -155 -80 -245 -110 -83 -27 -136 -72 -164 -138
-28 -65 -42 -157 -36 -239 3 -46 -1 -94 -14 -147 l-18 -79 -12 99 c-6 54 -27
149 -46 209 -55 179 -55 177 2 271 59 98 85 179 86 259 0 74 -35 335 -45 335
-5 0 -19 -21 -32 -47z m50 -298 c-3 -78 -8 -100 -39 -165 -20 -41 -43 -84 -51
-95 -15 -19 -16 -16 -17 46 0 36 9 101 21 145 12 43 25 120 29 169 4 50 14
103 21 120 14 29 14 28 27 -50 7 -44 11 -120 9 -170z m-67 191 c-5 -15 -10
-51 -10 -79 0 -29 -11 -99 -25 -157 -14 -58 -25 -130 -26 -160 l-1 -55 -14 43
c-20 66 -28 199 -15 262 6 31 29 83 52 119 40 64 58 76 39 27z m518 -374 c-57
-84 -150 -178 -204 -205 -96 -49 -151 -125 -161 -226 -4 -30 -17 -80 -30 -111
-13 -30 -21 -44 -17 -30 3 14 9 95 13 180 6 132 11 162 30 202 33 69 75 100
183 137 52 18 121 48 154 66 32 18 60 33 62 34 1 0 -12 -21 -30 -47z m38 -85
c-28 -123 -74 -187 -191 -261 -39 -24 -59 -48 -92 -105 -23 -41 -69 -100 -102
-133 l-61 -59 26 68 c14 37 30 95 35 128 19 121 48 166 145 217 64 34 177 147
224 223 23 37 25 38 28 17 2 -13 -4 -56 -12 -95z m-829 -79 c48 -22 84 -61
118 -127 13 -25 40 -62 60 -81 41 -39 68 -87 96 -167 l18 -54 -28 20 c-39 28
-86 88 -174 224 -42 65 -100 141 -127 168 -54 54 -47 57 37 17z m-32 -50 c20
-24 75 -101 122 -173 47 -71 110 -153 140 -182 30 -29 50 -53 46 -53 -22 0
-91 54 -181 141 -77 75 -103 106 -117 145 -10 27 -28 75 -40 107 -13 31 -19
57 -15 57 5 0 25 -19 45 -42z m1045 -349 c-49 -81 -70 -160 -55 -207 8 -26
-12 -137 -31 -175 -25 -48 -85 -107 -134 -132 -25 -13 -69 -41 -97 -64 -28
-22 -54 -37 -57 -34 -10 10 -7 77 5 135 17 79 62 159 128 230 32 35 73 92 90
127 44 85 154 201 193 201 3 0 -16 -36 -42 -81z m-82 13 c-31 -32 -70 -87 -88
-123 -18 -35 -59 -92 -91 -127 -87 -92 -138 -209 -140 -317 0 -37 -1 -38 -11
-15 -13 33 -3 231 15 290 7 25 39 82 70 128 32 45 57 89 57 96 0 7 8 20 18 29
16 14 196 95 216 96 5 1 -16 -25 -46 -57z m-809 -258 c35 -16 72 -24 108 -24
71 0 106 -20 139 -78 15 -26 38 -64 51 -85 l24 -39 -23 7 c-90 28 -180 71
-223 106 -62 52 -153 96 -236 113 -65 14 -65 14 6 30 35 7 98 -5 154 -30z
m-128 -30 c70 -21 146 -59 187 -95 41 -36 107 -70 192 -98 101 -33 102 -38 8
-46 -122 -10 -193 10 -248 70 -14 15 -54 47 -90 71 -36 24 -83 59 -104 79 -46
41 -34 45 55 19z"/>
<path d="M2019 2491 c-16 -16 -29 -39 -29 -51 0 -21 2 -20 29 9 34 36 63 39
91 11 41 -41 16 -112 -74 -203 -31 -31 -56 -59 -56 -62 0 -3 43 -5 95 -5 92 0
96 1 107 25 13 28 4 45 -14 27 -7 -7 -39 -12 -71 -12 l-60 0 50 53 c52 55 79
97 84 132 6 38 -11 74 -41 90 -44 23 -78 19 -111 -14z"/>
<path d="M2439 2497 c-24 -13 -57 -42 -73 -65 -56 -79 -43 -202 25 -237 40
-21 63 -19 98 11 53 45 61 122 15 165 -19 18 -31 21 -67 17 -40 -5 -44 -3 -39
14 8 31 76 98 100 98 11 0 24 5 27 10 11 18 -41 10 -86 -13z m25 -146 c26 -29
32 -95 12 -126 -35 -53 -86 -17 -94 66 -4 43 -2 55 13 66 26 18 49 16 69 -6z"/>
<path d="M2945 2498 c-38 -29 -55 -76 -55 -148 0 -72 17 -119 55 -148 38 -30
61 -28 100 11 70 70 73 204 6 276 -34 37 -67 40 -106 9z m83 -32 c16 -31 20
-151 9 -208 -8 -40 -35 -62 -61 -52 -46 18 -49 257 -4 286 22 13 42 4 56 -26z"/>
<path d="M3284 2508 c-51 -24 -55 -91 -9 -131 l23 -21 -29 -34 c-35 -40 -38
-81 -6 -109 32 -29 62 -36 102 -23 41 13 69 57 59 94 -3 13 -19 36 -34 51
l-29 28 29 34 c37 42 38 67 4 98 -29 27 -72 32 -110 13z m84 -20 c19 -19 14
-62 -10 -88 l-21 -23 -29 32 c-15 17 -28 40 -28 51 0 34 62 54 88 28z m22
-239 c0 -24 -27 -49 -52 -49 -52 0 -76 70 -42 119 l16 23 39 -38 c22 -21 39
-46 39 -55z"/>
<path d="M3819 2491 c-16 -16 -29 -38 -29 -49 0 -18 3 -17 29 9 34 34 63 37
91 9 41 -41 16 -112 -74 -203 -31 -31 -56 -59 -56 -62 0 -3 43 -5 95 -5 92 0
96 1 107 25 13 28 4 45 -14 27 -7 -7 -39 -12 -71 -12 l-60 0 50 53 c52 55 79
97 84 132 6 38 -11 74 -41 90 -44 23 -78 19 -111 -14z"/>
<path d="M4159 2491 c-16 -16 -29 -39 -29 -51 0 -21 2 -20 29 9 34 36 63 39
91 11 41 -41 16 -112 -74 -203 -31 -31 -56 -59 -56 -62 0 -3 43 -5 95 -5 92 0
96 1 107 25 13 28 4 45 -14 27 -7 -7 -39 -12 -71 -12 l-60 0 50 53 c52 55 79
97 84 132 6 38 -11 74 -41 90 -44 23 -78 19 -111 -14z"/>
<path d="M2690 2224 c-11 -12 -10 -18 3 -32 16 -15 18 -15 34 0 13 14 14 20 3
32 -7 9 -16 16 -20 16 -4 0 -13 -7 -20 -16z"/>
<path d="M3590 2224 c-11 -12 -10 -18 3 -32 16 -15 18 -15 34 0 13 14 14 20 3
32 -7 9 -16 16 -20 16 -4 0 -13 -7 -20 -16z"/>
<path d="M1483 2008 c-6 -24 -23 -85 -38 -137 -34 -114 -32 -209 5 -280 12
-26 26 -78 32 -120 18 -152 59 -227 161 -291 69 -44 60 -50 -34 -20 -83 25
-140 68 -190 141 -43 64 -88 93 -188 123 -71 21 -108 20 -220 -4 -98 -22 -149
-20 -225 6 -21 8 -42 14 -47 14 -23 0 -4 -32 56 -93 70 -72 129 -107 215 -127
30 -7 93 -31 139 -54 74 -35 93 -40 155 -40 55 0 85 6 133 27 l61 27 49 -20
c26 -11 85 -29 131 -39 80 -19 86 -23 159 -91 138 -132 290 -212 465 -247 77
-16 79 -17 55 -30 -60 -31 -150 -46 -242 -40 -135 9 -177 26 -256 102 -44 42
-91 77 -136 98 -66 31 -71 32 -193 30 -147 -1 -401 -42 -467 -74 -62 -30 -142
-154 -143 -220 0 -39 10 -41 40 -10 33 37 94 54 139 41 19 -5 64 -27 100 -49
115 -70 159 -85 236 -85 52 0 81 5 110 21 296 155 332 166 451 139 86 -18 220
-21 279 -5 22 6 85 32 140 57 l100 45 270 1 c199 1 288 -3 338 -13 37 -8 67
-18 67 -22 0 -10 -62 -27 -125 -35 -33 -4 -79 0 -128 11 -127 28 -221 2 -327
-89 -30 -26 -73 -57 -95 -68 -82 -41 -107 -78 -130 -189 -21 -97 -31 -274 -17
-283 6 -4 26 22 47 63 22 41 59 91 90 120 l54 51 79 0 c140 0 222 41 275 140
18 32 33 47 56 52 35 10 66 60 77 126 l6 40 65 12 c46 9 75 21 103 45 53 44
112 57 283 60 263 4 358 28 438 111 45 46 28 57 -19 12 -66 -63 -115 -83 -212
-83 -80 0 -90 2 -169 43 -46 23 -94 42 -105 42 -31 0 -145 57 -193 96 l-43 35
0 167 c1 189 -8 231 -65 327 -50 83 -70 102 -146 140 -93 47 -140 109 -179
235 -10 30 -22 56 -28 58 -28 9 -51 -186 -41 -359 5 -101 7 -108 55 -198 42
-80 57 -99 103 -130 44 -30 57 -45 73 -89 22 -59 53 -87 143 -128 33 -15 84
-47 113 -71 64 -52 130 -86 197 -102 55 -12 175 -71 175 -85 0 -5 -43 -6 -100
-3 -108 7 -186 -3 -250 -32 -37 -17 -43 -17 -127 1 -48 10 -99 18 -111 18 -13
0 -36 9 -52 20 -48 34 -82 42 -200 49 -67 4 -127 13 -145 22 -28 13 -30 19
-36 84 -6 75 -13 95 -66 167 -55 76 -111 107 -274 152 -78 22 -164 88 -232
178 -80 107 -96 138 -108 207 -6 33 -15 61 -19 61 -16 0 -34 -76 -33 -140 1
-36 11 -104 22 -153 12 -48 25 -122 30 -165 4 -42 15 -94 24 -114 29 -69 98
-159 144 -188 90 -57 230 -90 403 -95 64 -2 122 -9 149 -19 27 -10 75 -16 125
-16 93 0 201 -26 174 -41 -9 -5 -106 -11 -215 -12 -163 -3 -205 -6 -238 -21
-90 -39 -318 23 -485 133 -71 46 -189 158 -203 191 -5 14 -13 124 -16 245 -8
253 -6 247 -106 356 -72 78 -117 163 -136 257 -7 34 -16 62 -19 62 -4 0 -11
-19 -17 -42z m1312 -168 c25 -123 67 -225 129 -308 30 -40 57 -86 60 -102 3
-17 9 -44 12 -60 3 -17 32 -62 63 -101 51 -62 89 -135 76 -147 -2 -3 -28 9
-57 25 -46 25 -58 39 -88 98 -28 56 -44 75 -80 95 -38 22 -52 41 -95 121 l-49
94 -4 122 c-4 107 4 261 13 251 2 -2 11 -41 20 -88z m-1295 -95 c14 -99 26
-142 55 -180 35 -48 43 -67 81 -197 19 -67 46 -142 59 -166 l24 -43 -42 23
c-102 56 -158 147 -173 279 -3 35 -20 98 -36 139 -27 67 -29 83 -25 150 3 41
14 98 24 125 l18 50 2 -50 c2 -27 8 -86 13 -130z m148 -37 c47 -51 74 -90 81
-115 6 -21 11 -127 13 -236 3 -168 1 -195 -11 -180 -22 29 -40 77 -76 206 -25
86 -46 138 -72 175 -42 62 -59 130 -69 272 l-6 95 35 -70 c21 -44 61 -100 105
-147z m1253 38 c18 -15 58 -41 91 -57 65 -33 103 -77 152 -179 30 -64 31 -69
34 -234 4 -177 -2 -198 -33 -107 -9 28 -38 74 -70 111 -36 42 -57 75 -61 99
-11 68 -25 101 -71 158 -59 76 -78 114 -108 218 -33 114 -31 132 5 69 16 -28
43 -63 61 -78z m-891 -281 c82 -103 152 -149 274 -179 88 -22 118 -37 179 -95
61 -56 97 -128 97 -193 0 -27 -3 -48 -8 -48 -13 0 -54 31 -117 88 -41 37 -98
72 -182 113 -108 52 -128 66 -163 112 -22 29 -58 67 -80 85 -52 43 -85 102
-104 182 -24 100 -20 109 21 49 20 -30 57 -81 83 -114z m-10 -132 c33 -31 72
-74 87 -96 23 -32 49 -50 138 -92 116 -56 135 -68 236 -154 l64 -54 -115 6
c-185 9 -329 59 -389 136 -63 81 -92 146 -101 233 -5 46 -12 99 -15 118 l-6
35 21 -37 c11 -21 47 -63 80 -95z m-787 72 c100 -26 152 -59 196 -123 l39 -58
-92 2 c-84 1 -97 4 -166 39 -46 23 -103 42 -151 51 -43 7 -106 26 -141 42
l-63 29 50 -4 c28 -2 89 4 140 16 111 24 118 24 188 6z m-184 -111 c51 -10
115 -31 164 -55 68 -34 89 -39 123 -35 48 6 144 -3 144 -14 0 -20 -88 -45
-155 -44 -60 0 -80 6 -141 37 -39 19 -100 43 -135 52 -35 9 -79 23 -98 31 -36
15 -131 91 -131 104 0 5 33 -7 73 -26 40 -19 110 -41 156 -50z m666 -392 c52
-20 112 -61 155 -107 l35 -37 -45 7 c-46 8 -113 28 -212 64 -76 28 -96 27
-186 -11 -76 -32 -79 -33 -237 -33 -139 0 -165 -3 -189 -18 -42 -28 -41 -15 5
36 49 57 86 69 284 97 229 32 311 33 390 2z m-30 -106 c33 -14 93 -33 134 -42
l74 -17 -72 -22 c-40 -13 -113 -47 -163 -75 -180 -104 -241 -104 -414 1 -118
73 -178 83 -241 43 -32 -20 -28 -3 7 33 41 42 93 52 235 46 108 -5 126 -3 175
17 30 12 71 28 90 36 44 18 98 12 175 -20z m1247 -67 c29 -6 56 -14 60 -18 12
-11 -79 -64 -207 -120 -148 -65 -276 -148 -312 -202 -15 -22 -35 -64 -45 -92
l-19 -52 6 67 c8 86 29 166 53 198 10 14 41 37 67 52 27 14 70 45 96 67 62 53
112 82 168 97 59 16 69 16 133 3z m114 -61 c-11 -55 -39 -103 -63 -106 -23 -3
-45 -27 -86 -92 -45 -70 -116 -100 -235 -100 -44 0 -84 -6 -101 -14 -27 -15
-80 -68 -113 -116 l-18 -25 6 30 c3 17 20 59 37 95 28 56 41 71 109 117 42 29
139 81 215 116 76 35 160 78 187 95 28 18 54 32 59 32 5 0 7 -14 3 -32z"/>
</g>
</svg>
